<svg width="81" height="104" viewBox="0 0 81 104" fill="none" xmlns="http://www.w3.org/2000/svg">
<path d="M79.5759 94.085C80.1751 93.513 80.1972 92.5635 79.6252 91.9643L70.3038 82.199C69.7318 81.5997 68.7823 81.5777 68.183 82.1497C67.5838 82.7217 67.5617 83.6712 68.1337 84.2704L76.4194 92.9507L67.7391 101.236C67.1399 101.808 67.1178 102.758 67.6898 103.357C68.2618 103.956 69.2113 103.978 69.8106 103.406L79.5759 94.085ZM1.04932 0.834353C-0.641515 16.0519 1.17101 38.9918 12.1858 58.3906C23.2618 77.8974 43.576 93.6873 78.5053 94.4996L78.575 91.5004C44.7043 90.7127 25.3519 75.5026 14.7945 56.9094C4.17596 38.2082 2.38848 15.9481 4.03098 1.16565L1.04932 0.834353Z" fill="#5C215F"/>
</svg>
